<?xml version="1.0" standalone="no"?>
<!DOCTYPE svg PUBLIC "-//W3C//DTD SVG 20010904//EN"
 "http://www.w3.org/TR/2001/REC-SVG-20010904/DTD/svg10.dtd">
<svg version="1.0" xmlns="http://www.w3.org/2000/svg"
 width="512.000000pt" height="512.000000pt" viewBox="0 0 512.000000 512.000000"
 preserveAspectRatio="xMidYMid meet">
<metadata>
Created by potrace 1.11, written by Peter Selinger 2001-2013
</metadata>
<g transform="translate(0.000000,512.000000) scale(0.100000,-0.100000)"
fill="#000000" stroke="none">
<path d="M2379 5116 c-2 -2 -38 -6 -79 -10 -64 -6 -207 -29 -315 -51 -16 -3
-77 -19 -134 -36 -647 -186 -1198 -624 -1528 -1215 -27 -49 -57 -105 -65 -124
-63 -137 -79 -175 -106 -250 -72 -200 -117 -399 -139 -610 -15 -139 -8 -503
11 -615 3 -16 8 -43 10 -60 24 -172 103 -436 185 -621 236 -528 650 -971 1153
-1232 206 -106 451 -194 658 -236 216 -43 291 -50 525 -51 217 0 307 8 480 41
44 8 91 18 105 20 131 25 390 118 553 200 639 319 1107 870 1316 1549 78 254
105 448 106 740 0 193 -3 251 -16 330 -4 28 -10 66 -13 85 -2 19 -10 60 -16
90 -6 30 -14 66 -16 80 -3 14 -16 64 -30 112 -144 516 -446 971 -869 1309 -74
60 -260 189 -272 189 -3 0 -14 6 -22 14 -20 18 -257 137 -331 166 -78 31 -280
99 -280 95 0 -3 -12 0 -27 6 -16 6 -71 20 -123 31 -95 19 -106 21 -190 33 -25
4 -56 9 -70 11 -29 6 -456 15 -461 10z"/>
</g>
</svg>
